<?xml version="1.0" standalone="no"?>
<!DOCTYPE svg PUBLIC "-//W3C//DTD SVG 20010904//EN"
 "http://www.w3.org/TR/2001/REC-SVG-20010904/DTD/svg10.dtd">
<svg version="1.0" xmlns="http://www.w3.org/2000/svg"
 width="2000.000000pt" height="1500.000000pt" viewBox="0 0 2000.000000 1500.000000"
 preserveAspectRatio="xMidYMid meet">

<g transform="translate(0.000000,1500.000000) scale(0.10000,-0.10000)"
fill="#000000" stroke="none">
<path d="M2518 8303 c-2 -1303 -2 -2729 0 -3170 l2 -803 7480 0 7480 0 2 803
c2 441 2 1867 0 3170 l-3 2367 -7479 0 -7479 0 -3 -2367z m14800 70 l-3 -2138
-7315 0 -7315 0 -3 2138 -2 2137 7320 0 7320 0 -2 -2137z"/>
<path d="M3496 9688 c-19 -271 -27 -524 -36 -1118 -12 -850 -28 -1362 -45
-1466 l-5 -31 112 -7 c62 -4 139 -9 171 -13 l57 -6 0 180 c0 99 3 389 7 645
l6 466 76 6 c264 20 837 69 839 72 4 2 -26 155 -31 160 -2 2 -165 17 -362 34
-382 33 -514 46 -520 51 -3 4 -10 144 -31 636 l-7 151 44 6 c24 3 103 11 174
16 522 41 954 85 969 100 11 11 -24 160 -38 160 -6 1 -56 5 -111 10 -55 5
-318 14 -585 19 -267 6 -528 13 -581 16 l-96 6 -7 -93z"/>
<path d="M6365 9626 c-12 -225 -22 -2418 -11 -2454 13 -44 67 -105 111 -127
46 -21 116 -22 148 0 55 36 57 49 57 470 0 275 3 384 11 379 6 -3 124 -149
263 -323 139 -174 288 -354 332 -401 l78 -85 165 -7 c91 -4 166 -6 168 -5 1 2
-25 34 -59 72 -33 39 -205 243 -381 455 -177 212 -359 429 -406 484 l-85 99
86 82 c253 242 475 436 660 578 l86 67 -30 80 -31 80 -46 -34 c-25 -19 -228
-167 -451 -330 l-405 -297 -7 108 c-3 59 -11 351 -18 648 -6 297 -13 541 -15
543 -2 2 -51 14 -108 26 l-105 22 -7 -130z"/>
<path d="M5282 9069 c-132 -22 -290 -93 -370 -166 l-41 -38 34 -84 c19 -46 37
-86 39 -88 2 -3 32 14 65 37 225 152 451 169 576 44 62 -62 124 -225 125 -328
l0 -29 -53 7 c-132 15 -328 -35 -464 -119 -107 -67 -273 -235 -336 -342 -95
-160 -142 -365 -118 -515 25 -156 127 -291 275 -364 72 -35 87 -39 179 -42 58
-3 124 1 156 8 84 18 208 80 286 143 l69 56 13 -60 c22 -109 88 -179 168 -179
51 0 77 18 97 67 18 44 49 639 48 943 0 455 -90 768 -266 929 -118 108 -293
151 -482 120z m442 -880 c8 -41 8 -593 -1 -643 -5 -35 -14 -43 -90 -93 -98
-64 -249 -138 -313 -152 -112 -26 -206 2 -273 79 -45 53 -57 92 -57 190 0 185
87 354 249 483 130 103 284 165 412 166 l67 1 6 -31z"/>
<path d="M11412 9039 c-144 -24 -292 -163 -377 -354 -57 -130 -133 -437 -155
-630 -45 -401 58 -725 294 -923 104 -88 302 -164 421 -163 63 0 174 34 244 73
70 40 173 138 223 211 79 116 155 332 182 520 53 355 -13 671 -200 954 -149
225 -401 349 -632 312z m208 -212 c241 -88 400 -387 400 -752 0 -355 -161
-723 -352 -805 -164 -71 -345 24 -457 239 -61 118 -75 183 -74 346 2 332 78
676 189 861 45 75 67 99 118 124 47 23 85 21 176 -13z"/>
<path d="M8400 9009 c-417 -41 -645 -278 -701 -729 -35 -287 32 -710 150 -935
50 -97 146 -197 229 -237 66 -33 68 -33 212 -33 117 1 172 6 285 28 234 47
617 146 638 166 4 4 -1 41 -10 84 -16 67 -20 76 -38 72 -44 -10 -269 -46 -420
-67 -113 -15 -212 -22 -335 -22 l-175 -1 -67 33 c-36 18 -84 51 -107 73 -82
82 -136 247 -148 446 l-6 112 24 5 c13 4 132 24 264 45 492 81 714 181 803
360 24 50 27 66 26 156 0 127 -24 191 -97 272 -130 142 -293 196 -527 172z
m237 -256 c50 -23 92 -93 116 -194 6 -25 2 -28 -76 -64 -45 -21 -130 -57 -190
-81 -116 -47 -529 -184 -554 -184 -16 0 -13 29 14 110 66 196 243 358 453 414
77 20 193 20 237 -1z"/>
<path d="M12616 9002 c-16 -26 -50 -1909 -35 -1926 13 -15 160 -19 207 -7 l42
12 0 738 0 738 42 57 c71 96 178 130 273 87 77 -34 129 -121 164 -271 33 -140
41 -271 51 -801 5 -281 14 -518 19 -532 8 -21 19 -27 57 -33 36 -5 182 9 190
19 3 3 -24 1115 -31 1257 -3 74 -8 151 -11 170 -5 33 0 42 57 103 126 138 238
152 345 43 127 -131 168 -391 152 -961 -12 -394 -14 -618 -5 -647 10 -36 36
-36 176 -3 l106 26 0 227 c0 125 1 362 3 527 3 312 -5 430 -39 599 -75 370
-233 536 -514 536 -147 0 -247 -49 -321 -157 l-41 -61 -62 63 c-102 104 -221
155 -356 154 -112 0 -197 -42 -258 -127 l-32 -44 -7 38 c-4 22 -7 65 -7 96
l-1 56 -69 16 c-81 18 -88 19 -95 8z"/>
<path d="M14776 8963 c-11 -84 -26 -627 -27 -978 -1 -187 -4 -468 -8 -623 -3
-158 -2 -286 3 -289 4 -3 47 -8 95 -11 64 -3 95 -1 124 11 l37 16 0 744 0 745
47 52 c78 87 169 112 259 71 157 -71 213 -329 214 -981 1 -325 15 -629 30
-644 13 -13 146 -15 203 -3 l39 8 -7 222 c-3 122 -10 390 -15 596 -6 206 -13
438 -16 515 l-6 141 57 63 c72 79 122 106 195 106 150 0 242 -141 286 -436 20
-136 22 -366 10 -863 -10 -392 -9 -405 41 -405 15 0 75 12 134 26 l108 25 -6
70 c-3 38 0 237 6 442 17 495 1 726 -64 951 -71 245 -191 379 -374 417 -81 17
-226 7 -283 -18 -58 -26 -131 -93 -165 -151 l-26 -44 -35 41 c-44 53 -142 124
-212 151 -35 14 -86 24 -141 27 -124 8 -175 -11 -260 -97 l-67 -66 -7 92 -7
93 -68 15 c-38 9 -73 16 -79 16 -5 0 -12 -21 -15 -47z"/>
<path d="M10023 8986 c-351 -67 -536 -286 -615 -728 -20 -107 -22 -159 -23
-398 0 -299 9 -377 62 -523 66 -185 172 -275 378 -323 107 -25 377 -25 515 0
96 17 319 72 328 81 8 7 -16 113 -33 150 -28 57 -55 61 -186 26 -207 -55 -391
-77 -495 -61 -230 37 -326 210 -327 585 0 331 62 559 198 733 142 181 295 253
539 251 67 0 148 -4 181 -8 33 -5 61 -8 62 -7 1 1 5 36 10 78 l9 77 -47 21
c-87 37 -170 51 -329 55 -106 3 -178 0 -227 -9z"/>
</g>
</svg>
