<svg xmlns="http://www.w3.org/2000/svg" version="1.1" width="1200" height="600" viewBox="0 0 1000 424"><g transform="matrix(1,0,0,1,-0.6060606060606233,-0.17211218800903794)"><svg viewBox="0 0 396 168" data-background-color="#ffffff" preserveAspectRatio="xMidYMid meet" height="424" width="1000" xmlns="http://www.w3.org/2000/svg" xmlns:xlink="http://www.w3.org/1999/xlink"><g id="tight-bounds" transform="matrix(1,0,0,1,0.2400000000000091,0.06819539524886409)"><svg viewBox="0 0 395.52 167.86360920950227" height="167.86360920950227" width="395.52"><g><svg viewBox="0 0 395.52 167.86360920950227" height="167.86360920950227" width="395.52"><g><svg viewBox="0 0 395.52 167.86360920950227" height="167.86360920950227" width="395.52"><g id="textblocktransform"><svg viewBox="0 0 395.52 167.86360920950227" height="167.86360920950227" width="395.52" id="textblock"><g><rect width="395.52" height="121.78158393665159" fill="none" stroke-width="9.018103199999999" stroke="#007bff" data-fill-palette-color="none" data-stroke-palette-color="tertiary"></rect><rect width="395.52" height="46.08202527285068" y="121.78158393665159" fill="#007bff" data-fill-palette-color="tertiary"></rect></g><g><svg viewBox="0 0 395.52 121.78158393665159" height="121.78158393665159" width="395.52"><g transform="matrix(1,0,0,1,23.607599999999998,23.607599999999998)"><svg width="348.3048" viewBox="2 -35.54999923706055 172.63999938964844 36.970001220703125" height="74.56638393665159" data-palette-color="#007bff"><path d="M6.45-0.44L6.45 0.29 2 0Q2.49-5.37 2.59-17.97 2.69-30.57 3.22-35.55L3.22-35.55Q4.88-35.4 12.04-35.3 19.19-35.21 21.39-34.86L21.39-34.86 21.92-32.67Q19.73-32.28 13.13-31.74 6.54-31.2 6.2-31.15L6.2-31.15Q6.25-30.03 6.42-26.56 6.59-23.1 6.64-20.85L6.64-20.85Q8.3-20.65 12.7-20.29 17.09-19.92 18.26-19.82L18.26-19.82 18.75-17.58Q8.45-16.65 6.69-16.6L6.69-16.6 6.69-15.77Q6.69-13.92 6.57-8.08 6.45-2.25 6.45-0.44L6.45-0.44ZM22.07-21.09L22.07-21.09 21.09-23.58Q22.36-24.85 24.31-25.61 26.27-26.37 28.17-26.37L28.17-26.37Q36.42-26.37 36.42-12.11L36.42-12.11Q36.42-10.16 36.2-6.35 35.98-2.54 35.98-0.63L35.98-0.63Q35.59 0.88 34.47 0.88L34.47 0.88Q33.59 0.88 32.86 0 32.13-0.88 32.13-1.95L32.13-1.95Q32.13-2.29 32.18-2.44L32.18-2.44Q29.15 0.49 25.73 0.49L25.73 0.49Q23.14 0.49 21.21-1.39 19.28-3.27 19.28-5.96L19.28-5.96Q19.28-10.5 22.82-14.16 26.36-17.82 30.86-17.82L30.86-17.82Q31.05-17.82 31.25-17.8 31.44-17.77 31.71-17.72 31.98-17.68 32.13-17.68L32.13-17.68Q31.74-23.39 27.59-23.39L27.59-23.39Q25.14-23.39 22.07-21.09ZM32.27-5.81L32.27-5.81Q32.37-9.23 32.37-10.99L32.37-10.99Q32.37-12.45 32.27-15.09L32.27-15.09 31.88-15.09Q28.42-15.04 25.56-12.5 22.7-9.96 22.7-6.35L22.7-6.35Q22.7-4.79 23.65-3.86 24.61-2.93 25.97-2.93L25.97-2.93Q28.12-2.93 32.27-5.81ZM58.2 0L58.2 0 53.71-0.1Q51.9-1.9 48.75-5.93 45.6-9.96 44.77-10.89L44.77-10.89 44.77-0.83Q44.33 0.63 43.06 0.63L43.06 0.63Q42.18 0.63 41.38-0.07 40.57-0.78 40.38-1.81L40.38-1.81Q40.52-6.84 40.52-18.51 40.52-30.18 40.72-35.25L40.72-35.25 43.7-34.62Q43.75-32.67 43.87-26.61 43.99-20.56 44.09-17.58L44.09-17.58 55.95-26.27 56.78-24.07Q52.14-20.7 45.89-14.55L45.89-14.55Q47.21-13.13 51.73-7.64 56.25-2.15 58.2 0ZM77.68-4.74L77.68-4.74 78.17-2.59Q76.02-1.81 71.79-0.85 67.57 0.1 65.52 0.1L65.52 0.1Q63.42 0.1 61.86-1.29 60.3-2.69 59.51-4.86 58.73-7.03 58.37-9.16 58-11.28 58-13.33L58-13.33Q58-25.54 69.04-25.54L69.04-25.54Q71.67-25.54 73.67-23.85 75.68-22.17 75.68-19.48L75.68-19.48Q75.68-18.02 74.87-16.89 74.06-15.77 72.92-15.11 71.77-14.45 69.99-13.92 68.21-13.38 66.84-13.13 65.47-12.89 63.57-12.6 61.66-12.3 60.93-12.16L60.93-12.16Q60.98-10.74 61.1-9.67 61.22-8.59 61.59-7.35 61.96-6.1 62.57-5.3 63.18-4.49 64.25-3.96 65.32-3.42 66.79-3.42L66.79-3.42Q68.55-3.42 71.09-3.74 73.63-4.05 75.6-4.39 77.58-4.74 77.68-4.74ZM61.13-15.19L61.13-15.19Q67.77-17.09 72.01-19.19L72.01-19.19Q71.67-20.8 71.09-21.53 70.5-22.27 69.33-22.27L69.33-22.27Q66.35-22.27 63.93-20.21 61.52-18.16 61.13-15.19ZM96.57-24.22L96.57-24.22 96.33-22.12Q94.28-22.41 92.81-22.41L92.81-22.41Q89.44-22.41 87.25-20.39 85.05-18.36 84.24-15.6 83.44-12.84 83.44-9.47L83.44-9.47Q83.44-7.91 83.63-6.69 83.83-5.47 84.34-4.3 84.85-3.13 85.95-2.47 87.05-1.81 88.66-1.81L88.66-1.81Q90.81-1.81 94.13-2.64L94.13-2.64Q95.16-3.03 95.74-3.03L95.74-3.03Q96.91-3.03 97.16-0.29L97.16-0.29Q92.86 1.07 89.2 1.07L89.2 1.07Q83.88 1.07 82-1.54 80.12-4.15 80.12-10.01L80.12-10.01Q80.12-13.43 80.58-15.99 81.04-18.55 82.22-20.78 83.39-23 85.61-24.17 87.83-25.34 91.05-25.34L91.05-25.34Q94.67-25.34 96.57-24.22ZM99.65-10.4L99.65-10.4Q99.65-12.35 100.06-14.75 100.48-17.14 101.31-19.78 102.14-22.41 103.8-24.17 105.46-25.93 107.65-25.93L107.65-25.93Q112.34-25.93 115.17-21.7 118.01-17.48 118.01-12.3L118.01-12.3Q118.01-10.11 117.54-7.93 117.08-5.76 116.1-3.66 115.12-1.56 113.29-0.17 111.46 1.22 109.02 1.42L109.02 1.42Q104.53 0.83 102.09-2.42 99.65-5.66 99.65-10.4ZM107.95-23.39L107.95-23.39Q106.24-23.19 105.07-20.26 103.89-17.33 103.55-14.58 103.21-11.82 103.21-9.72L103.21-9.72Q103.21-6.98 104.89-4.66 106.58-2.34 108.68-2.34L108.68-2.34Q110.19-2.34 111.41-3.52 112.63-4.69 113.34-6.42 114.05-8.15 114.42-9.91 114.78-11.67 114.78-13.04L114.78-13.04Q114.78-17.04 112.98-20.02 111.17-23 107.95-23.39ZM135.29-19.34L135.29-19.34Q135.48-16.6 135.58-12.87 135.68-9.13 135.75-5.32 135.82-1.51 135.87-0.15L135.87-0.15Q134.8 0.15 133.87 0.15L133.87 0.15Q133.14 0.15 132.5-0.1L132.5-0.1Q132.36-2 132.31-4.44 132.26-6.88 132.26-8.76 132.26-10.64 132.19-12.7 132.11-14.75 131.92-16.21 131.72-17.68 131.33-18.92 130.94-20.17 130.23-20.85 129.53-21.53 128.5-21.58L128.5-21.58Q127.48-21.58 126.84-21.14 126.21-20.7 125.47-19.53L125.47-19.53 125.47-0.2Q124.74 0.2 123.72 0.2L123.72 0.2Q122.93 0.2 121.96-0.05L121.96-0.05Q122.1-3.13 122.15-12.16 122.2-21.19 122.54-25.54L122.54-25.54 124.74-25.05 124.89-22.56Q126.35-24.85 128.6-24.85L128.6-24.85Q131.92-24.85 134.21-21.92L134.21-21.92Q135.63-24.85 138.8-24.85L138.8-24.85Q140.07-24.85 141-24.56L141-24.56Q146.32-23.05 146.32-10.94L146.32-10.94Q146.32-9.18 146.2-6.23 146.08-3.27 146.08-2.25L146.08-2.25Q146.08-0.88 146.23 0L146.23 0Q143.69 0.68 143.15 0.68L143.15 0.68Q142.66 0.68 142.47 0.59L142.47 0.59Q142.27-0.05 142.27-1.76L142.27-1.76Q142.27-2.83 142.42-6.18 142.56-9.52 142.56-11.43L142.56-11.43Q142.56-21.58 138.56-21.68L138.56-21.68Q137.63-21.63 136.95-21.12 136.26-20.61 135.29-19.34ZM163.61-19.34L163.61-19.34Q163.8-16.6 163.9-12.87 164-9.13 164.07-5.32 164.14-1.51 164.19-0.15L164.19-0.15Q163.12 0.15 162.19 0.15L162.19 0.15Q161.46 0.15 160.82-0.1L160.82-0.1Q160.68-2 160.63-4.44 160.58-6.88 160.58-8.76 160.58-10.64 160.5-12.7 160.43-14.75 160.24-16.21 160.04-17.68 159.65-18.92 159.26-20.17 158.55-20.85 157.84-21.53 156.82-21.58L156.82-21.58Q155.79-21.58 155.16-21.14 154.52-20.7 153.79-19.53L153.79-19.53 153.79-0.2Q153.06 0.2 152.03 0.2L152.03 0.2Q151.25 0.2 150.28-0.05L150.28-0.05Q150.42-3.13 150.47-12.16 150.52-21.19 150.86-25.54L150.86-25.54 153.06-25.05 153.21-22.56Q154.67-24.85 156.92-24.85L156.92-24.85Q160.24-24.85 162.53-21.92L162.53-21.92Q163.95-24.85 167.12-24.85L167.12-24.85Q168.39-24.85 169.32-24.56L169.32-24.56Q174.64-23.05 174.64-10.94L174.64-10.94Q174.64-9.18 174.52-6.23 174.4-3.27 174.4-2.25L174.4-2.25Q174.4-0.88 174.54 0L174.54 0Q172 0.68 171.47 0.68L171.47 0.68Q170.98 0.68 170.78 0.59L170.78 0.59Q170.59-0.05 170.59-1.76L170.59-1.76Q170.59-2.83 170.73-6.18 170.88-9.52 170.88-11.43L170.88-11.43Q170.88-21.58 166.88-21.68L166.88-21.68Q165.95-21.63 165.27-21.12 164.58-20.61 163.61-19.34Z" opacity="1" transform="matrix(1,0,0,1,0,0)" fill="#007bff" class="wordmark-text-0" data-fill-palette-color="primary" id="text-0"></path></svg></g></svg></g></svg></g></svg></g><g></g></svg></g><defs></defs></svg><rect width="395.52" height="167.86360920950227" fill="none" stroke="none" visibility="hidden"></rect></g></svg></g></svg>